# AST/ASF file generated using VICON BodyLanguage
# -----------------------------------------------
:version 1.10
:name VICON
:units
  mass 1.0
  length 0.45
  angle deg
:documentation
   .ast/.asf automatically generated from VICON data using
   VICON BodyBuilder and BodyLanguage model FoxedUp or BRILLIANT.MOD
:root
   order TX TY TZ RX RY RZ
   axis XYZ
   position 0 0 0  
   orientation 0 0 0 
:bonedata
  begin
     id 1 
     name lhipjoint
     direction 0.621036 -0.695554 0.361275 
     length 2.46325 
     axis 0 0 0  XYZ
  end
  begin
     id 2 
     name lfemur
     direction 0.34202 -0.939693 0  
     length 6.54784  
     axis 0 0 20  XYZ
    dof rx ry rz
    limits (-160.0 20.0)
           (-70.0 70.0)
           (-60.0 70.0)
  end
  begin
     id 3 
     name ltibia
     direction 0.34202 -0.939693 0   
     length 7.84737   
     axis 0 0 20   XYZ
    dof rx
    limits (-10.0 170.0)
  end
  begin
     id 4 
     name lfoot
     direction 0.0790693 -0.217241 0.97291   
     length 2.59747   
     axis -90 7.62852e-016 20   XYZ
    dof rx rz
    limits (-45.0 90.0)
           (-70.0 20.0)
  end
  begin
     id 5 
     name ltoes
     direction 1.53572e-011 -4.21898e-011 1   
     length 1.29919   
     axis -90 7.62852e-016 20   XYZ
    dof rx
    limits (-90.0 20.0)
  end
  begin
     id 6 
     name rhipjoint
     direction -0.602353 -0.708375 0.367935   
     length 2.41867  
     axis 0 0 0  XYZ 
  end
  begin
     id 7 
     name rfemur
     direction -0.34202 -0.939693 0   
     length 6.92065   
     axis 0 0 -20   XYZ
    dof rx ry rz
    limits (-160.0 20.0)
           (-70.0 70.0)
           (-70.0 60.0)
  end
  begin
     id 8 
     name rtibia
     direction -0.34202 -0.939693 0   
     length 7.88883   
     axis 0 0 -20   XYZ
    dof rx
    limits (-10.0 170.0)
 end
 begin
     id 9 
     name rfoot
     direction -0.0768692 -0.211196 0.974416   
     length 2.43714  
     axis -90 -7.62852e-016 -20   XYZ
    dof rx rz
    limits (-45.0 90.0)
           (-20.0 70.0)
  end
  begin
     id 10 
     name rtoes
     direction -1.53575e-011 -4.21933e-011 1   
     length 1.22113   
     axis -90 -7.62852e-016 -20   XYZ
    dof rx
    limits (-90.0 20.0)
  end
  begin
     id 11 
     name lowerback
     direction 0.0197937 0.98943 -0.143655   
     length 2.16931   
     axis 0 0 0   XYZ
    dof rx ry rz
    limits (-20.0 45.0)
           (-30.0 30.0)
           (-30.0 30.0)
  end
  begin
     id 12 
     name upperback
     direction -0.00183968 0.999975 0.00684288   
     length 2.17221   
     axis 0 0 0   XYZ
    dof rx ry rz
    limits (-20.0 45.0)
           (-30.0 30.0)
           (-30.0 30.0)
  end
  begin
     id 13 
     name thorax
     direction -0.00950244 0.997208 0.0740685   
     length 2.22549   
     axis 0 0 0   XYZ
    dof rx ry rz
    limits (-20.0 45.0)
           (-30.0 30.0)
           (-30.0 30.0)
  end
  begin
     id 14 
     name lowerneck
     direction 0.0218238 0.996215 0.0841425   
     length 1.77269   
     axis 0 0 0   XYZ
    dof rx ry rz
    limits (-20.0 45.0)
           (-30.0 30.0)
           (-30.0 30.0)
  end
  begin
     id 15 
     name upperneck
     direction -0.00430652 0.994214 -0.107332   
     length 1.76534   
     axis 0 0 0   XYZ
    dof rx ry rz
    limits (-20.0 45.0)
           (-30.0 30.0)
           (-30.0 30.0)
  end
  begin
     id 16
     name head
     direction -0.00328946 0.998959 -0.0454998  
     length 1.82634  
     axis 0 0 0   XYZ
    dof rx ry rz
    limits (-20.0 45.0)
           (-30.0 30.0)
           (-30.0 30.0)
  end
  begin
     id 17 
     name lclavicle
     direction 0.970962 0.239191 0.00450212  
     length 3.84872  
     axis 0 0 0   XYZ
    dof ry rz
    limits (-20.0 10.0)
           (0.0 20.0)
  end
  begin
     id 18 
     name lhumerus
     direction 1 -4.48966e-011 5.74696e-028   
     length 5.22771   
     axis 180 -30 -90   XYZ
    dof rx ry rz
    limits (-60.0 90.0)
           (-90.0 90.0)
           (-90.0 90.0)
  end
  begin
     id 19
     name lradius
     direction 1 -4.4896e-011 4.25109e-027   
     length 3.45251   
     axis 180 -30 -90   XYZ
    dof rx
    limits (-10.0 170.0)
  end
  begin
     id 20
     name lwrist
     direction 1 -4.48971e-011 1.15382e-027   
     length 1.72626   
     axis -5.52449e-016 90 90   XYZ
    dof ry
    limits (-180.0 0.0)
 end
  begin
     id 21 
     name lhand
     direction 1 -4.49034e-011 2.30765e-027   
     length 0.552119   
     axis -1.47248e-015 90 90   XYZ
    dof rx rz
    limits (-90.0 90.0)
           (-45.0 45.0)
  end
  begin
     id 22 
     name lfingers
     direction 1 -4.48951e-011 4.61529e-027   
     length 0.445133   
     axis -2.94495e-015 90 90   XYZ
    dof rx
    limits (0.0 90.0)
  end
  begin
     id 23
     name lthumb
     direction 0.707107 -6.34991e-011 0.707107   
     length 0.639124   
     axis -90 45 2.85299e-015   XYZ
    dof rx rz
    limits (-45.0 45.0)
           (-45.0 45.0)
  end
  begin
     id 24 
     name rclavicle
     direction -0.97424 0.222511 -0.0366699   
     length 3.73439  
     axis 0 0 0   XYZ 
    dof ry rz
    limits (-10.0 20.0)
           (-20.0 0.0)
  end
  begin
     id 25 
     name rhumerus
     direction -1 -4.48956e-011 -4.97258e-028  
     length 5.2398   
     axis 180 30 90   XYZ
    dof rx ry rz
    limits (-90.0 60.0)
           (-90.0 90.0)
           (-90.0 90.0)
  end
  begin
     id 26 
     name rradius
     direction -1 -4.4897e-011 -1.72611e-027   
     length 3.48042   
     axis 180 30 90   XYZ
    dof rx
    limits (-10.0 170.0)
  end
  begin
     id 27 
     name rwrist
     direction -1 -4.48976e-011 1.15382e-027   
     length 1.74021   
     axis -5.52449e-016 -90 -90   XYZ
    dof ry
    limits (-180.0 0.0)
  end
  begin
     id 28
     name rhand
     direction -1 -4.48963e-011 2.30765e-027   
     length 0.618713   
     axis -1.47248e-015 -90 -90   XYZ
    dof rx rz
    limits (-90.0 90.0)
           (-45.0 45.0)
  end
  begin
     id 29
     name rfingers
     direction -1 -4.4888e-011 4.61529e-027   
     length 0.498823   
     axis -2.94495e-015 -90 -90   XYZ
    dof rx
    limits (0.0 90.0)
  end
  begin
     id 30
     name rthumb
     direction -0.707107 -6.34968e-011 0.707107   
     length 0.716213   
     axis -90 -45 -2.85299e-015   XYZ
    dof rx rz
    limits (-45.0 45.0)
           (-45.0 45.0)
  end
:hierarchy
  begin
    root lhipjoint rhipjoint lowerback
    lhipjoint lfemur
    lfemur ltibia
    ltibia lfoot
    lfoot ltoes
    rhipjoint rfemur
    rfemur rtibia
    rtibia rfoot
    rfoot rtoes
    lowerback upperback
    upperback thorax
    thorax lowerneck lclavicle rclavicle
    lowerneck upperneck
    upperneck head
    lclavicle lhumerus
    lhumerus lradius
    lradius lwrist
    lwrist lhand lthumb
    lhand lfingers
    rclavicle rhumerus
    rhumerus rradius
    rradius rwrist
    rwrist rhand rthumb
    rhand rfingers
  end

#!OML:ASF G:\JayActor3\Patient Classification 1\Patient 1\Session 5\male.ASF
:FULLY-SPECIFIED
:DEGREES
45
root -36.9936 17.0674 -6.78534 145.455 -86.3274 -147.913
lowerback -1.61029 -1.2469 0.942436
upperback 1.7844 -1.71073 0.404965
thorax 2.71806 -0.843014 -0.179734
lowerneck -6.94609 0.26415 2.08694
upperneck 2.72402 0.0162046 2.63593
head 2.04488 0.0939757 0.476652
rclavicle 3.89501e-014 -8.94531e-015
rhumerus -33.2077 -2.9742 -87.0318
rradius 28.7532
rwrist 0.060395
rhand -18.6201 -7.60591
rfingers 7.12502
rthumb 7.67182 -37.4468
lclavicle 3.89501e-014 -8.94531e-015
lhumerus -30.7191 1.39474 86.9362
lradius 25.7514
lwrist 17.0758
lhand -17.1894 14.7074
lfingers 7.12502
lthumb 9.05261 44.4931
rfemur -6.31919 6.14468 24.3551
rtibia 32.0587
rfoot -24.4857 -12.2383
rtoes 7.34369
lfemur 4.12443 4.7217 -17.5078
ltibia 14.6182
lfoot -15.6892 8.43413
ltoes 0.704826
46
root -36.9872 17.0698 -6.78546 144.371 -86.4674 -146.785
lowerback -1.57008 -1.24415 0.948056
upperback 1.79587 -1.7063 0.381813
thorax 2.70639 -0.840527 -0.20562
lowerneck -7.02552 0.229156 2.02407
upperneck 2.71532 -0.0314581 2.71428
head 2.05691 0.0718414 0.510583
rclavicle -3.0216e-014 1.88845e-015
rhumerus -33.2382 -3.04725 -87.0173
rradius 28.6566
rwrist 0.11864
rhand -18.6153 -7.61617
rfingers 7.12502
rthumb 7.67647 -37.4568
lclavicle -3.0216e-014 1.88845e-015
lhumerus -30.6932 1.35844 86.9667
lradius 25.8474
lwrist 17.1174
lhand -17.1446 14.7509
lfingers 7.12502
lthumb 9.09583 44.5348
rfemur -6.37182 6.04272 24.3274
rtibia 32.0441
rfoot -24.491 -12.2887
rtoes 7.36628
lfemur 4.05214 4.71427 -17.5151
ltibia 14.5671
lfoot -15.6081 8.31203
ltoes 0.674216
47
root -36.9797 17.0722 -6.78498 142.996 -86.5925 -145.367
lowerback -1.50591 -1.23904 0.97828
upperback 1.80507 -1.69925 0.363069
thorax 2.67836 -0.836418 -0.240028
lowerneck -7.10902 0.195011 1.95984
upperneck 2.6991 -0.0773571 2.78621
head 2.06727 0.0503341 0.542765
rclavicle -5.01465e-015 2.98177e-016
rhumerus -33.267 -3.10737 -87.0048
rradius 28.5618
rwrist 0.177964
rhand -18.6097 -7.61568
rfingers 7.12502
rthumb 7.68186 -37.4562
lclavicle -5.01465e-015 2.98177e-016
lhumerus -30.6699 1.3118 87.0029
lradius 25.9456
lwrist 17.1553
lhand -17.0883 14.8206
lfingers 7.12502
lthumb 9.1501 44.6021
rfemur -6.42049 5.94382 24.3174
rtibia 32.0192
rfoot -24.4895 -12.341
rtoes 7.38702
lfemur 3.96779 4.7138 -17.5042
ltibia 14.5363
lfoot -15.5316 8.18688
ltoes 0.638259
48
root -36.9716 17.0747 -6.78408 141.4 -86.701 -143.73
lowerback -1.4227 -1.2295 1.0287
upperback 1.81273 -1.68664 0.347031
thorax 2.63761 -0.829279 -0.282275
lowerneck -7.18688 0.162782 1.89276
upperneck 2.66812 -0.11961 2.85561
head 2.07181 0.0302643 0.574706
rclavicle 8.2154e-015 -1.59028e-015
rhumerus -33.2937 -3.17015 -86.9905
rradius 28.4672
rwrist 0.24876
rhand -18.6018 -7.5969
rfingers 7.12502
rthumb 7.68947 -37.4371
lclavicle 8.2154e-015 -1.59028e-015
lhumerus -30.6492 1.25354 87.0429
lradius 26.0432
lwrist 17.1919
lhand -17.0364 14.8833
lfingers 7.12502
lthumb 9.20025 44.6626
rfemur -6.46533 5.8563 24.323
rtibia 31.9849
rfoot -24.4823 -12.4017
rtoes 7.40807
lfemur 3.87273 4.71498 -17.4795
ltibia 14.5269
lfoot -15.4631 8.06587
ltoes 0.608067
49
root -36.9633 17.0772 -6.78322 139.656 -86.7933 -141.951
lowerback -1.32818 -1.2164 1.0879
upperback 1.82101 -1.66941 0.334646
thorax 2.5911 -0.819782 -0.32529
lowerneck -7.25081 0.131032 1.82591
upperneck 2.62081 -0.159846 2.91799
head 2.06845 0.0106481 0.604348
rclavicle -6.22444e-015 1.59028e-015
rhumerus -33.3176 -3.22827 -86.9756
rradius 28.3718
rwrist 0.323398
rhand -18.5901 -7.58041
rfingers 7.12502
rthumb 7.70082 -37.4202
lclavicle -6.22444e-015 1.59028e-015
lhumerus -30.6347 1.18722 87.087
lradius 26.1379
lwrist 17.2329
lhand -17 14.9307
lfingers 7.12502
lthumb 9.23532 44.7085
rfemur -6.50298 5.78487 24.3423
rtibia 31.9454
rfoot -24.4776 -12.4672
rtoes 7.44419
lfemur 3.77775 4.72319 -17.4437
ltibia 14.5287
lfoot -15.3993 7.95003
ltoes 0.572798
50
root -36.9554 17.0794 -6.78239 137.863 -86.8757 -140.132
lowerback -1.241 -1.20187 1.1468
upperback 1.83965 -1.65055 0.323812
thorax 2.55951 -0.809436 -0.366863
lowerneck -7.29721 0.103166 1.76122
upperneck 2.5519 -0.193392 2.97173
head 2.05476 -0.00634363 0.63099
rclavicle -2.29627e-014 6.95746e-015
rhumerus -33.3268 -3.29535 -86.9534
rradius 28.2769
rwrist 0.450428
rhand -18.5288 -7.60531
rfingers 7.12502
rthumb 7.75993 -37.4429
lclavicle -2.29627e-014 6.95746e-015
lhumerus -30.618 1.12088 87.1318
lradius 26.23
lwrist 17.2773
lhand -17.0098 14.9177
lfingers 7.12502
lthumb 9.22585 44.6958
rfemur -6.53 5.71826 24.3648
rtibia 31.9063
rfoot -24.4766 -12.5292
rtoes 7.49006
lfemur 3.6973 4.73223 -17.4063
ltibia 14.5277
lfoot -15.3389 7.84116
ltoes 0.535081
51
root -36.9483 17.0813 -6.78159 136.118 -86.9552 -138.373
lowerback -1.16195 -1.18758 1.196
upperback 1.86819 -1.63197 0.312315
thorax 2.54298 -0.799333 -0.404071
lowerneck -7.32762 0.0802059 1.70098
upperneck 2.4688 -0.219422 3.01745
head 2.03344 -0.0201213 0.654501
rclavicle -4.03378e-014 3.57812e-015
rhumerus -33.3225 -3.36735 -86.9254
rradius 28.1775
rwrist 0.62205
rhand -18.4201 -7.65823
rfingers 7.12502
rthumb 7.86491 -37.4919
lclavicle -4.03378e-014 3.57812e-015
lhumerus -30.603 1.06076 87.174
lradius 26.3165
lwrist 17.3211
lhand -17.0294 14.8894
lfingers 7.12502
lthumb 9.20702 44.6684
rfemur -6.54289 5.6501 24.3808
rtibia 31.871
rfoot -24.4804 -12.5852
rtoes 7.52798
lfemur 3.64143 4.73713 -17.3771
ltibia 14.5139
lfoot -15.2833 7.73928
ltoes 0.511863
52
root -36.9419 17.0829 -6.78057 134.437 -87.0392 -136.687
lowerback -1.09313 -1.17613 1.23155
upperback 1.90564 -1.61713 0.299651
thorax 2.54169 -0.791244 -0.435363
lowerneck -7.35527 0.0584184 1.65029
upperneck 2.38658 -0.243827 3.04694
head 2.01184 -0.0333869 0.671277
rclavicle 7.74794e-015 3.97569e-016
rhumerus -33.3038 -3.438 -86.8923
rradius 28.0725
rwrist 0.826134
rhand -18.2777 -7.73154
rfingers 7.12502
rthumb 8.00235 -37.5601
lclavicle 7.74794e-015 3.97569e-016
lhumerus -30.5866 1.01467 87.2124
lradius 26.3922
lwrist 17.3627
lhand -17.068 14.8287
lfingers 7.12502
lthumb 9.16971 44.6094
rfemur -6.54455 5.56832 24.3816
rtibia 31.8409
rfoot -24.4885 -12.6223
rtoes 7.57774
lfemur 3.60832 4.7355 -17.3632
ltibia 14.4841
lfoot -15.2286 7.64831
ltoes 0.485925
53
root -36.9362 17.0843 -6.77944 132.749 -87.1249 -135.002
lowerback -1.026 -1.16654 1.25889
upperback 1.9443 -1.60459 0.286518
thorax 2.5428 -0.784434 -0.462689
lowerneck -7.3797 0.0383016 1.60756
upperneck 2.31402 -0.266244 3.06425
head 1.99277 -0.0457076 0.682936
rclavicle 2.49661e-014 -3.97569e-015
rhumerus -33.282 -3.50536 -86.8559
rradius 27.9605
rwrist 1.04296
rhand -18.12 -7.80953
rfingers 7.12502
rthumb 8.15455 -37.6322
lclavicle 2.49661e-014 -3.97569e-015
lhumerus -30.5757 0.974592 87.2475
lradius 26.4514
lwrist 17.4059
lhand -17.1182 14.7482
lfingers 7.12502
lthumb 9.12125 44.5309
rfemur -6.53607 5.475 24.3733
rtibia 31.8153
rfoot -24.4991 -12.6485
rtoes 7.628
lfemur 3.59553 4.72032 -17.3597
ltibia 14.4401
lfoot -15.1791 7.56951
ltoes 0.471193
54
root -36.9307 17.0856 -6.77815 130.977 -87.202 -133.234
lowerback -0.961701 -1.15731 1.28755
upperback 1.98122 -1.59262 0.276582
thorax 2.54377 -0.777919 -0.487555
lowerneck -7.39044 0.020908 1.5682
upperneck 2.23877 -0.284604 3.07704
head 1.9703 -0.0562233 0.692692
rclavicle -1.62755e-014 1.98785e-015
rhumerus -33.2597 -3.56352 -86.8211
rradius 27.8463
rwrist 1.23004
rhand -17.978 -7.86339
rfingers 7.12502
rthumb 8.29153 -37.6807
lclavicle -1.62755e-014 1.98785e-015
lhumerus -30.5647 0.944967 87.2785
lradius 26.4887
lwrist 17.4438
lhand -17.1769 14.655
lfingers 7.12502
lthumb 9.06467 44.4402
rfemur -6.52864 5.38529 24.3691
rtibia 31.792
rfoot -24.5102 -12.6746
rtoes 7.67382
lfemur 3.58724 4.68899 -17.3565
ltibia 14.3898
lfoot -15.133 7.51193
ltoes 0.452109
55
root -36.9253 17.0868 -6.77673 129.138 -87.2712 -131.397
lowerback -0.900743 -1.14794 1.31751
upperback 2.01475 -1.58053 0.269412
thorax 2.5432 -0.771351 -0.510356
lowerneck -7.39303 0.0044412 1.53163
upperneck 2.16836 -0.301663 3.08599
head 1.94793 -0.0661108 0.700801
rclavicle -1.31664e-014 2.78299e-015
rhumerus -33.2382 -3.60551 -86.7917
rradius 27.7282
rwrist 1.36085
rhand -17.8801 -7.87884
rfingers 7.12502
rthumb 8.38607 -37.6924
lclavicle -1.31664e-014 2.78299e-015
lhumerus -30.555 0.924452 87.3047
lradius 26.5046
lwrist 17.4661
lhand -17.229 14.5582
lfingers 7.12502
lthumb 9.0144 44.3456
rfemur -6.52231 5.29993 24.3683
rtibia 31.7688
rfoot -24.5206 -12.7002
rtoes 7.71227
lfemur 3.5778 4.6477 -17.3531
ltibia 14.3419
lfoot -15.0941 7.46871
ltoes 0.43156
